<?xml version="1.0" encoding="UTF-8" standalone="no"?>
<svg
   width="256"
   height="256"
   viewBox="0 0 32 32"
   fill="none"
   version="1.1"
   id="svg5"
   xmlns="http://www.w3.org/2000/svg"
   xmlns:svg="http://www.w3.org/2000/svg">
  <path
     d="M24 8H8C6.89543 8 6 8.89543 6 10V24C6 25.1046 6.89543 26 8 26H24C25.1046 26 26 25.1046 26 24V10C26 8.89543 25.1046 8 24 8Z"
     stroke="#3b82f6"
     stroke-width="2"
     stroke-linecap="round"
     stroke-linejoin="round"
     id="path1" />
  <path
     d="M20 8V6C20 4.89543 19.1046 4 18 4H14C12.8954 4 12 4.89543 12 6V8"
     stroke="#3b82f6"
     stroke-width="2"
     stroke-linecap="round"
     stroke-linejoin="round"
     id="path2" />
  <path
     d="M6 12H26"
     stroke="#3b82f6"
     stroke-width="2"
     stroke-linecap="round"
     stroke-linejoin="round"
     id="path3" />
  <path
     style="font-weight:bold;font-size:12px;font-family:Galvji;-inkscape-font-specification:'Galvji, Bold';fill:#3b82f6;stroke-width:0.250394"
     d="m 15.861771,17.466183 q -0.46875,0 -0.732422,0.351562 -0.257812,0.351563 -0.257812,0.984375 0,0.626953 0.257812,0.984375 0.263672,0.351563 0.726563,0.351563 0.474609,0 0.74414,-0.357422 0.275391,-0.357422 0.275391,-0.978516 0,-0.621094 -0.275391,-0.978515 -0.269531,-0.357422 -0.738281,-0.357422 z m 0.1875,-3.591797 q 1.054688,0 1.921875,0.316406 0.873047,0.316406 1.494141,0.890625 0.626953,0.574219 0.966797,1.376953 0.345703,0.802735 0.345703,1.769531 0,0.697266 -0.164063,1.259766 -0.158203,0.5625 -0.457031,0.955078 -0.298828,0.392578 -0.726562,0.603516 -0.421875,0.210937 -0.955079,0.210937 -0.550781,0 -0.925781,-0.246093 -0.36914,-0.246094 -0.46875,-0.667969 h -0.105469 q -0.375,0.896484 -1.40625,0.896484 -0.457031,0 -0.832031,-0.175781 -0.375,-0.175781 -0.638672,-0.498047 -0.263672,-0.328125 -0.410156,-0.785156 -0.146484,-0.457031 -0.146484,-1.013672 0,-0.533203 0.140625,-0.972656 0.146484,-0.439453 0.404297,-0.75586 0.257812,-0.316406 0.621093,-0.486328 0.363282,-0.175781 0.802735,-0.175781 0.474609,0 0.832031,0.216797 0.363281,0.216797 0.539062,0.609375 h 0.105469 v -0.697266 h 1.183594 v 3.105469 q 0,0.316406 0.146484,0.486328 0.146485,0.169922 0.416016,0.169922 0.222656,0 0.398437,-0.134766 0.181641,-0.134765 0.310547,-0.386718 0.128907,-0.251954 0.19336,-0.609375 0.07031,-0.363282 0.07031,-0.808594 0,-0.796875 -0.263672,-1.441406 -0.263672,-0.650391 -0.75,-1.107422 -0.480468,-0.457032 -1.166015,-0.703125 -0.679688,-0.251953 -1.511719,-0.251953 -0.849609,0 -1.558594,0.292968 -0.703125,0.28711 -1.21289,0.814453 -0.509766,0.521485 -0.791016,1.253907 -0.28125,0.726562 -0.28125,1.605468 0,0.890625 0.28125,1.611329 0.287109,0.714843 0.814453,1.21875 0.533203,0.503906 1.283203,0.773437 0.75586,0.275391 1.6875,0.275391 0.234375,0 0.462891,-0.01758 0.234375,-0.01172 0.445312,-0.03516 0.210938,-0.02344 0.386719,-0.05859 0.175781,-0.03516 0.298828,-0.08203 v 0.955078 q -0.345703,0.09961 -0.779297,0.152344 -0.433593,0.05859 -0.902343,0.05859 -1.142579,0 -2.080079,-0.351563 -0.93164,-0.345703 -1.59375,-0.984375 -0.65625,-0.638671 -1.019531,-1.541015 -0.357422,-0.902344 -0.357422,-2.003906 0,-1.083985 0.357422,-1.980469 0.363281,-0.902344 1.019531,-1.546875 0.65625,-0.644531 1.564454,-1.001953 0.908203,-0.357422 2.009765,-0.357422 z"
     id="text5"
     aria-label="@" />
</svg>
